<svg xmlns="http://www.w3.org/2000/svg" x="0px" y="0px" width="300px" height="54px">
<path fill="#009FDA" d="M145.69,7.64h2.79v10.62h-2.79V7.64z M150.27,18.26h2.7v-3.34c0-1.7,0.57-2.48,1.68-2.48
	c0.73,0,1.24,0.51,1.24,1.99v3.83h2.7v-4.95c0-1.64-0.85-3.16-2.98-3.16c-1.23,0-2.31,0.5-2.85,1.65h-0.03v-1.46h-2.46
	 M159.42,12.25h1.54v3.23c0,1.88,0.58,2.96,3,2.96c0.68,0,1.19-0.09,1.69-0.15l-0.09-1.78c-0.27,0.04-0.55,0.1-0.83,0.1
	c-0.85,0-1.08-0.48-1.08-1.44v-2.92h1.89v-1.91h-1.89V7.72l-2.65,0.84v1.78h-1.59 M174.37,15.1v-0.5c0-2.36-1.06-4.45-3.95-4.45
	c-2.42,0-4.18,1.52-4.18,4.14s1.96,4.15,4.53,4.15c1.01,0,2-0.15,2.87-0.5v-1.93c-0.81,0.44-1.65,0.6-2.38,0.6
	c-1.32,0-2.14-0.42-2.29-1.52 M168.94,13.55c0.06-0.91,0.53-1.66,1.5-1.66c1.08,0,1.5,0.75,1.5,1.66H168.94z M181.33,10.25
	c-0.27-0.04-0.6-0.09-0.92-0.09c-1.17,0-1.84,0.63-2.3,1.64h-0.04v-1.46h-2.46v7.92h2.7v-3.34c0-1.55,0.7-2.48,1.96-2.48
	c0.32,0,0.61,0,0.91,0.09 M182.39,18.26h2.7v-3.34c0-1.7,0.57-2.48,1.68-2.48c0.73,0,1.25,0.51,1.25,1.99v3.83h2.69v-4.95
	c0-1.64-0.85-3.16-2.98-3.16c-1.23,0-2.31,0.5-2.84,1.65h-0.03v-1.46h-2.46 M199.81,18.26c-0.12-0.63-0.15-1.25-0.15-1.87v-2.95
	c0-2.42-1.72-3.29-3.71-3.29c-1.15,0-2.16,0.17-3.12,0.56l0.04,1.86c0.75-0.42,1.61-0.59,2.49-0.59c0.97,0,1.77,0.29,1.79,1.37
	c-0.35-0.06-0.83-0.1-1.26-0.1c-1.44,0-4.03,0.29-4.03,2.71c0,1.72,1.38,2.5,2.92,2.5c1.11,0,1.86-0.44,2.48-1.43h0.02
	c0,0.41,0.05,0.82,0.06,1.25 M195.48,16.62c-0.63,0-1.1-0.32-1.1-0.87c0-0.76,0.72-1.05,1.64-1.05c0.4,0,0.79,0.03,1.14,0.04
	C197.15,15.68,196.51,16.62,195.48,16.62 M200.56,12.25h1.53v3.23c0,1.88,0.58,2.96,3,2.96c0.68,0,1.19-0.09,1.69-0.15l-0.09-1.78
	c-0.27,0.04-0.55,0.1-0.83,0.1c-0.85,0-1.08-0.48-1.08-1.44v-2.92h1.89v-1.91h-1.89V7.72l-2.65,0.84v1.78h-1.58 M210.76,7.04h-2.7
	v2.01h2.7 M208.06,18.26h2.7v-7.92h-2.7V18.26z M212.22,14.31c0,2.62,1.96,4.14,4.54,4.14c2.58,0,4.54-1.52,4.54-4.14
	c0-2.63-1.96-4.15-4.54-4.15C214.18,10.15,212.22,11.67,212.22,14.31 M218.52,14.31c0,1.17-0.51,2.22-1.76,2.22
	c-1.24,0-1.75-1.05-1.75-2.22c0-1.19,0.51-2.24,1.75-2.24C218.01,12.07,218.52,13.12,218.52,14.31 M222.45,18.26h2.7v-3.34
	c0-1.7,0.57-2.48,1.68-2.48c0.73,0,1.24,0.51,1.24,1.99v3.83h2.7v-4.95c0-1.64-0.85-3.16-2.98-3.16c-1.23,0-2.31,0.5-2.85,1.65
	h-0.03v-1.46h-2.46 M239.88,18.26c-0.12-0.63-0.15-1.25-0.15-1.87v-2.95c0-2.42-1.73-3.29-3.72-3.29c-1.15,0-2.16,0.17-3.12,0.56
	l0.04,1.86c0.75-0.42,1.62-0.59,2.49-0.59c0.97,0,1.77,0.29,1.78,1.37c-0.34-0.06-0.82-0.1-1.25-0.1c-1.44,0-4.03,0.29-4.03,2.71
	c0,1.72,1.38,2.5,2.92,2.5c1.11,0,1.86-0.44,2.47-1.43h0.03c0,0.41,0.05,0.82,0.06,1.25 M235.55,16.62c-0.63,0-1.11-0.32-1.11-0.87
	c0-0.76,0.72-1.05,1.63-1.05c0.4,0,0.8,0.03,1.14,0.04C237.21,15.68,236.57,16.62,235.55,16.62 M241.62,18.26h2.7V6.85h-2.7V18.26z
	 M145.7,32.68h2.79v-4.28h4.03V26.4h-4.03v-2.33h4.21v-2.01h-6.99 M156.83,21.46h-2.7v2.01h2.7 M154.14,32.68h2.7v-7.92h-2.7V32.68z
	 M158.68,32.68h2.7v-3.35c0-1.7,0.57-2.48,1.67-2.48c0.74,0,1.24,0.51,1.24,1.99v3.83h2.7v-4.94c0-1.65-0.85-3.17-2.99-3.17
	c-1.23,0-2.3,0.5-2.84,1.65h-0.03v-1.46h-2.46 M176.11,32.68c-0.13-0.62-0.15-1.25-0.15-1.87v-2.95c0-2.42-1.73-3.29-3.72-3.29
	c-1.15,0-2.16,0.17-3.11,0.56l0.04,1.86c0.75-0.42,1.62-0.59,2.49-0.59c0.97,0,1.77,0.29,1.78,1.37c-0.35-0.06-0.83-0.11-1.26-0.11
	c-1.44,0-4.03,0.29-4.03,2.71c0,1.72,1.38,2.5,2.92,2.5c1.11,0,1.86-0.44,2.47-1.43h0.03c0,0.41,0.04,0.82,0.06,1.25 M171.78,31.04
	c-0.63,0-1.11-0.32-1.11-0.87c0-0.76,0.72-1.04,1.63-1.04c0.4,0,0.79,0.02,1.14,0.04C173.44,30.1,172.79,31.04,171.78,31.04
	 M177.53,32.68h2.7v-3.35c0-1.7,0.57-2.48,1.67-2.48c0.74,0,1.25,0.51,1.25,1.99v3.83h2.7v-4.94c0-1.65-0.85-3.17-2.98-3.17
	c-1.23,0-2.31,0.5-2.84,1.65h-0.03v-1.46h-2.46 M193.68,25.02c-0.61-0.3-1.33-0.44-2.14-0.44c-2.58,0-4.54,1.52-4.54,4.15
	c0,2.61,1.97,4.14,4.54,4.14c0.72,0,1.53-0.13,2.2-0.35l-0.06-2.04c-0.45,0.25-1.06,0.38-1.68,0.38c-1.17,0-2.22-0.82-2.22-2.08
	c0-1.37,0.89-2.19,2.07-2.19c0.64,0,1.14,0.14,1.63,0.44 M202.46,29.52v-0.5c0-2.37-1.05-4.45-3.94-4.45
	c-2.43,0-4.18,1.52-4.18,4.14c0,2.61,1.97,4.15,4.54,4.15c1,0,1.99-0.16,2.86-0.5v-1.93c-0.8,0.44-1.65,0.61-2.38,0.61
	c-1.32,0-2.14-0.43-2.29-1.52 M197.04,27.97c0.06-0.91,0.52-1.66,1.49-1.66c1.08,0,1.5,0.75,1.5,1.66H197.04z M216.87,30.21
	c-0.76,0.31-1.69,0.55-2.61,0.55c-2.03,0-3.49-1.26-3.49-3.34c0-1.98,1.29-3.43,3.27-3.43c0.96,0,1.82,0.24,2.73,0.74l0.22-2.29
	c-1-0.3-2.03-0.55-3.1-0.55c-3.45,0-5.99,1.84-5.99,5.54c0,4.02,3.22,5.45,6.01,5.45c1.42,0,2.31-0.23,3.1-0.43 M217.62,28.72
	c0,2.62,1.96,4.14,4.54,4.14c2.58,0,4.54-1.52,4.54-4.14c0-2.63-1.96-4.15-4.54-4.15C219.58,24.57,217.62,26.09,217.62,28.72
	 M223.91,28.72c0,1.18-0.51,2.22-1.75,2.22c-1.24,0-1.75-1.05-1.75-2.22c0-1.19,0.51-2.23,1.75-2.23
	C223.41,26.49,223.91,27.54,223.91,28.72 M233.56,24.66c-0.27-0.04-0.6-0.09-0.92-0.09c-1.17,0-1.84,0.64-2.3,1.65h-0.03v-1.46
	h-2.46v7.92h2.7v-3.34c0-1.55,0.71-2.48,1.96-2.48c0.31,0,0.62,0,0.92,0.09 M234.43,35.87h2.7v-4.31h0.03
	c0.51,0.94,1.52,1.3,2.47,1.3c2.33,0,3.57-1.95,3.57-4.29c0-1.92-1.19-4-3.34-4c-1.23,0-2.37,0.5-2.91,1.61h-0.03v-1.43h-2.49
	 M238.78,26.67c1.05,0,1.63,0.91,1.63,1.96c0,1.27-0.62,2.13-1.63,2.13c-0.9,0-1.65-0.87-1.65-2.02
	C237.13,27.56,237.79,26.67,238.78,26.67 M243.97,28.72c0,2.62,1.97,4.14,4.54,4.14c2.58,0,4.54-1.52,4.54-4.14
	c0-2.63-1.96-4.15-4.54-4.15C245.95,24.57,243.97,26.09,243.97,28.72 M250.27,28.72c0,1.18-0.51,2.22-1.75,2.22
	c-1.24,0-1.75-1.05-1.75-2.22c0-1.19,0.51-2.23,1.75-2.23C249.76,26.49,250.27,27.54,250.27,28.72 M259.92,24.66
	c-0.27-0.04-0.6-0.09-0.92-0.09c-1.16,0-1.84,0.64-2.31,1.65h-0.03v-1.46h-2.46v7.92h2.7v-3.34c0-1.55,0.7-2.48,1.96-2.48
	c0.32,0,0.62,0,0.92,0.09 M268.3,32.68c-0.12-0.62-0.15-1.25-0.15-1.87v-2.95c0-2.42-1.73-3.29-3.72-3.29
	c-1.16,0-2.16,0.17-3.12,0.56l0.04,1.86c0.75-0.42,1.62-0.59,2.49-0.59c0.97,0,1.77,0.29,1.78,1.37c-0.34-0.06-0.82-0.11-1.26-0.11
	c-1.44,0-4.03,0.29-4.03,2.71c0,1.72,1.38,2.5,2.92,2.5c1.11,0,1.86-0.44,2.47-1.43h0.03c0,0.41,0.04,0.82,0.06,1.25 M263.97,31.04
	c-0.63,0-1.11-0.32-1.11-0.87c0-0.76,0.72-1.04,1.63-1.04c0.4,0,0.8,0.02,1.14,0.04C265.63,30.1,264.99,31.04,263.97,31.04
	 M269.03,26.67h1.54v3.22c0,1.89,0.59,2.97,3,2.97c0.68,0,1.18-0.09,1.69-0.16l-0.09-1.78c-0.27,0.05-0.55,0.11-0.82,0.11
	c-0.86,0-1.08-0.49-1.08-1.45v-2.92h1.89v-1.91h-1.89v-2.62l-2.65,0.84v1.78h-1.59 M279.23,21.46h-2.7v2.01h2.7 M276.53,32.68h2.7
	v-7.92h-2.7V32.68z M280.7,28.72c0,2.62,1.96,4.14,4.54,4.14c2.58,0,4.54-1.52,4.54-4.14c0-2.63-1.96-4.15-4.54-4.15
	C282.66,24.57,280.7,26.09,280.7,28.72 M286.99,28.72c0,1.18-0.51,2.22-1.75,2.22c-1.24,0-1.75-1.05-1.75-2.22
	c0-1.19,0.51-2.23,1.75-2.23C286.48,26.49,286.99,27.54,286.99,28.72 M290.93,32.68h2.7v-3.35c0-1.7,0.57-2.48,1.68-2.48
	c0.73,0,1.24,0.51,1.24,1.99v3.83h2.7v-4.94c0-1.65-0.85-3.17-2.98-3.17c-1.23,0-2.31,0.5-2.85,1.65h-0.03v-1.46h-2.46"/>
<path fill="#002244" d="M236.55,39.72c1.74,0,2.7,0.85,2.7,2.41c0,1.47-0.95,2.34-2.53,2.34h-1.11v2.24h-1.47v-6.99 M235.62,43.25
	h0.87c0.85,0,1.28-0.38,1.28-1.12c0-0.76-0.47-1.18-1.33-1.18h-0.83V43.25z M231.45,43.91c0,1.02-0.39,1.53-1.19,1.53
	c-0.8,0-1.22-0.52-1.22-1.53v-4.19h-1.46v4.09c-0.01,1,0.24,1.76,0.73,2.26c0.45,0.46,1.11,0.69,1.95,0.69
	c1.21,0,2.65-0.51,2.65-2.96v-4.09h-1.47V43.91z M223.58,39.66c1.49,0,3.08,0.94,3.08,3.56c0,2.61-1.59,3.54-3.08,3.54
	c-1.49,0-3.09-0.93-3.09-3.54C220.5,40.6,222.09,39.66,223.58,39.66 M223.58,45.47c0.58,0,1.56-0.3,1.56-2.24
	c0-1.95-0.98-2.24-1.56-2.24c-1.02,0-1.57,0.8-1.57,2.24C222.01,44.68,222.57,45.47,223.58,45.47 M218.98,44.59
	c0.24,0.5,0.45,0.93,0.93,0.93h0.35v1.15l-0.05,0.01c-0.01,0-0.26,0.07-0.71,0.07c-1.16,0-1.52-0.8-1.83-1.52
	c-0.25-0.59-0.48-1.09-1.08-1.09h-0.64v2.57h-1.47v-6.99h2.44c1.78,0,2.62,0.71,2.62,2.23c0,0.93-0.55,1.52-1.11,1.76
	C218.67,43.95,218.82,44.28,218.98,44.59 M215.95,42.99h0.81c0.82,0,1.32-0.38,1.32-1.01c0-0.65-0.44-1.03-1.22-1.03h-0.92V42.99z
	 M210.57,44.16h1.52v0.08c0,0.45-0.16,1.21-1.22,1.21c-0.99,0-1.59-0.83-1.59-2.22c0-1.43,0.57-2.24,1.57-2.24
	c1.18,0,1.23,1.21,1.23,1.27v0.08l1.36-0.21v-0.06c0-0.51-0.44-2.39-2.61-2.39c-1.94,0-3.06,1.3-3.06,3.56
	c0,2.22,1.15,3.54,3.08,3.54c1.94,0,2.62-1.37,2.62-2.54v-1.21h-2.89V44.16z M206.18,39.72h-1.74l-2.29,3.15v-3.15h-1.49v6.99h1.49
	v-3.22l2.34,3.22h1.76l-2.67-3.53L206.18,39.72z M197.89,44.04l-2.41-4.32h-1.49v6.99h1.47v-4.17l2.4,4.17h1.5v-6.99h-1.47V44.04z
	 M191.09,39.77l2.51,6.94h-1.53L191.48,45h-2.29l-0.57,1.71h-1.54l2.53-6.99h1.45L191.09,39.77z M190.34,41.63l-0.75,2.2h1.51
	L190.34,41.63z M185.72,43.02c0.53,0.16,1.22,0.65,1.22,1.7c0,1.26-0.88,1.99-2.42,1.99h-2.9v-6.99h2.62c1.49,0,2.25,0.63,2.25,1.88
	C186.49,42.56,186.06,42.91,185.72,43.02 M184.09,42.58c0.61,0,0.89-0.26,0.89-0.82c0-0.53-0.37-0.8-1.08-0.8h-0.82v1.62H184.09z
	 M183.09,45.48h1.15c0.75,0,1.1-0.29,1.1-0.9c0-0.75-0.61-0.91-1.13-0.91h-1.11V45.48z M175.58,39.72c2.15,0,3.42,1.35,3.42,3.61
	c0,2.15-1.14,3.38-3.13,3.38h-2.33v-6.99H175.58z M175,45.48h0.86c1.06,0,1.69-0.8,1.69-2.16c0-1.57-0.67-2.36-1.99-2.36H175V45.48z
	 M169.87,39.72h-1.47v6.99h4.45v-1.24h-2.98V39.72z M166.42,44.59c0.24,0.5,0.46,0.93,0.94,0.93h0.34v1.15l-0.04,0.01
	c-0.01,0-0.27,0.07-0.72,0.07c-1.16,0-1.51-0.8-1.83-1.52c-0.25-0.59-0.47-1.09-1.08-1.09h-0.64v2.57h-1.47v-6.99h2.44
	c1.78,0,2.62,0.71,2.62,2.23c0,0.93-0.55,1.52-1.1,1.76C166.11,43.95,166.27,44.28,166.42,44.59 M163.39,42.99h0.82
	c0.81,0,1.32-0.38,1.32-1.01c0-0.65-0.44-1.03-1.21-1.03h-0.93V42.99z M158.01,39.66c1.49,0,3.08,0.94,3.08,3.56
	c0,2.61-1.59,3.54-3.08,3.54c-1.49,0-3.08-0.93-3.08-3.54C154.93,40.6,156.52,39.66,158.01,39.66 M158.01,45.47
	c0.59,0,1.56-0.3,1.56-2.24c0-1.95-0.97-2.24-1.56-2.24c-1.01,0-1.57,0.8-1.57,2.24C156.44,44.68,157,45.47,158.01,45.47
	 M153.06,39.72h1.66l-1.98,6.99h-1.66l-1.2-4.39l-1.22,4.39h-1.65l-1.98-6.99h1.71l1.16,5.1l1.39-5.1h1.23l1.34,5.1L153.06,39.72z
	 M60.02,44.55h10.82V9.58H60.02V44.55z M74.52,44.55h10.8V32.06h11.83v-8.42H85.32v-5.67h13.3V9.57h-24.1 M124.72,34.39
	c-1.97,0.85-3.87,1.35-5.84,1.35c-4.47,0-7.69-3.05-7.69-9.06c0-5.71,3.47-8.76,8.06-8.76c1.81,0,3.63,0.6,5.4,1.3V10
	c-2.9-0.65-4.67-1.1-7.66-1.1c-9.02,0-16.84,5.86-16.84,17.57c0,12.47,7.49,18.58,16.84,18.58c2.74,0,5.72-0.7,7.74-1.4
	 M135.88,47.34c0.26,0,0.47-0.21,0.47-0.48V7.6c0-0.26-0.21-0.47-0.47-0.47c-0.26,0-0.47,0.21-0.47,0.47v39.26
	C135.41,47.13,135.62,47.34,135.88,47.34"/>
<radialGradient id="SVGID_1_" cx="50.8713" cy="10.3659" r="44.268" gradientUnits="userSpaceOnUse">
	<stop  offset="0" style="stop-color:#FFFFFF"/>
	<stop  offset="0.0598" style="stop-color:#EBF7FC"/>
	<stop  offset="0.1829" style="stop-color:#B6E3F4"/>
	<stop  offset="0.3589" style="stop-color:#60C3E8"/>
	<stop  offset="0.544" style="stop-color:#009FDA"/>
	<stop  offset="1" style="stop-color:#002244"/>
</radialGradient>
<path fill="url(#SVGID_1_)" d="M33,43.97c3.46-0.04,6.74-0.55,9.64-1.54c0.73-0.25,1.43-0.53,2.09-0.83c-0.81,2-1.99,3.67-3.54,4.91
	c-3.05,2.29-6.65,3.85-10.56,4.44C31.61,49.24,32.39,46.82,33,43.97 M16.73,48.84c-0.07-0.06-0.15-0.12-0.23-0.16
	c-1.36-0.67-1.91-3.75-1.2-8.45c2.61,1.19,5.46,2.14,8.45,2.79c2.27,0.49,4.52,0.8,6.73,0.91c-1.08,4.78-2.47,7.28-3.39,7.28
	c-0.06,0-0.11,0.01-0.17,0.02C23.27,51.2,19.82,50.35,16.73,48.84 M4.11,33.63C3.9,32.82,3.77,32,3.72,31.17
	c0.82,1.18,1.82,2.33,3,3.44c1.79,1.68,3.92,3.18,6.29,4.47c-0.48,2.75-0.62,5.24-0.31,7.24C8.61,43.19,5.55,38.75,4.11,33.63
	 M34.54,26.96c0-0.97-0.02-1.95-0.04-2.92c3.05-0.21,5.87-1.01,8.17-2.35c2.14,4.29,3.29,8.81,3.27,13.09c0,1.24-0.1,2.42-0.3,3.53
	c-1.1,0.69-2.37,1.28-3.79,1.77c-2.53,0.86-5.38,1.33-8.39,1.41C34.19,37.07,34.54,31.94,34.54,26.96 M24.26,40.58
	c-3.03-0.66-5.9-1.64-8.49-2.88c0.85-3.89,2.44-8.6,4.95-13.84c0.36-0.76,0.74-1.5,1.12-2.23c1.76,0.8,3.67,1.44,5.68,1.87
	c1.52,0.34,3.05,0.51,4.54,0.56c0.03,0.93,0.04,1.9,0.04,2.88c0,5.85-0.46,10.71-1.12,14.5C28.78,41.36,26.52,41.07,24.26,40.58
	 M8.38,32.79c-2.08-1.95-3.51-4.02-4.24-6.07c0.58-2.3,1.69-4.61,3.34-6.82c1.56-2.09,3.5-3.98,5.72-5.6
	c0.64,1.18,1.54,2.33,2.68,3.42c1.09,1.03,2.36,1.97,3.76,2.79c-0.39,0.75-0.76,1.5-1.14,2.28c-2.17,4.52-3.95,9.36-4.99,13.76
	C11.6,35.44,9.86,34.18,8.38,32.79 M32.88,9.7c2.78,2.1,5.33,4.81,7.46,7.99c0.41,0.6,0.79,1.22,1.15,1.83
	c-1.95,1.15-4.43,1.84-7.09,2.03C34.17,17.26,33.67,13.13,32.88,9.7 M28.03,21.08c-1.77-0.38-3.46-0.93-5.01-1.63
	c2.29-4.06,4.78-7.58,7.25-10.2c0.77,3.08,1.41,7.21,1.69,12.34C30.66,21.53,29.34,21.37,28.03,21.08 M17.57,15.9
	c-1.01-0.96-1.78-1.97-2.3-2.97c2.29-1.4,4.83-2.54,7.54-3.36c1.61-0.49,3.23-0.86,4.86-1.11c-2.34,2.67-4.69,6.05-6.83,9.88
	C19.61,17.62,18.51,16.8,17.57,15.9 M12.3,7.99c-0.03,0.13-0.07,0.25-0.09,0.38c-0.25,1.17-0.22,2.37,0.07,3.56
	c-2.63,1.84-4.92,4.02-6.75,6.47c-0.56,0.75-1.06,1.51-1.5,2.28C5.38,15.59,8.33,11.17,12.3,7.99 M14.6,8.89
	c0.27-1.29,1.03-2.45,2.21-3.39c2.86-0.87,6.18-0.66,9.68,0.64c-1.47,0.26-2.94,0.6-4.39,1.05c-2.7,0.82-5.25,1.95-7.58,3.31
	C14.46,9.96,14.49,9.41,14.6,8.89 M34.46,5.62c0.84-0.55,1.61-0.93,2.26-1.09c1.23,0.5,2.45,1.13,3.6,1.94
	C38.47,6.01,36.49,5.72,34.46,5.62 M30.33,2.96c0.99,0.11,2.05,0.29,3.14,0.54c-0.68,0.37-1.39,0.84-2.11,1.4
	C31.05,4.16,30.7,3.51,30.33,2.96 M27.68,3.93c-1.11-0.43-2.2-0.76-3.28-1c0.86-0.1,1.74-0.16,2.63-0.16c0.42,0,0.93,0.51,1.47,1.5
	C28.23,4.16,27.95,4.03,27.68,3.93 M0.75,27c0,2.54,0.36,4.99,1.01,7.32c0.04,0.16,0.08,0.31,0.12,0.47
	c0.01,0.03,0.02,0.06,0.03,0.09c3.32,10.89,13.34,18.83,25.15,18.83c5.46,0,10.54-1.7,14.75-4.6c0.04-0.03,0.08-0.05,0.13-0.08
	c0.25-0.17,0.49-0.35,0.72-0.54c4.85-3.64,8.42-8.91,9.92-15.01c0.09-0.28,0.16-0.56,0.22-0.85c0.01-0.07,0.02-0.13,0.02-0.2
	c0.36-1.76,0.55-3.57,0.55-5.43c0-3.6-0.7-7.11-2.07-10.4c-0.26-0.63-0.98-0.93-1.61-0.66c-0.62,0.27-0.91,1-0.65,1.63
	c1.24,2.98,1.87,6.16,1.87,9.43c0,2-0.25,3.95-0.7,5.81c-0.36,1.18-1,2.27-1.87,3.25c0.02-0.42,0.04-0.85,0.04-1.28
	c0.01-4.77-1.28-9.8-3.69-14.53c1.76-1.54,2.89-3.44,3.28-5.57c0.13-0.68-0.32-1.32-0.98-1.44c-0.67-0.13-1.31,0.32-1.43,1
	c-0.26,1.4-0.98,2.69-2.1,3.79c-0.35-0.59-0.72-1.17-1.1-1.74c-2.15-3.2-4.7-5.97-7.49-8.17c3.69,0.25,7.09,1.15,9.84,2.71
	c0.42,0.25,1,0.24,1.4-0.1c0.52-0.44,0.59-1.23,0.16-1.75c-3.94-5.6-10.77-8.69-19.21-8.69C12.56,0.29,0.75,12.27,0.75,27"/>
</svg>
